<svg xmlns="http://www.w3.org/2000/svg" viewBox="0 0 1254 1254" preserveAspectRatio="xMidYMid meet" width="1254" height="1254"><metadata><rdf:RDF xmlns:rdf="http://www.w3.org/1999/02/22-rdf-syntax-ns#" xmlns:dc="http://purl.org/dc/elements/1.1/"><rdf:Description><dc:creator>RealFaviconGenerator</dc:creator><dc:source>https://realfavicongenerator.net</dc:source></rdf:Description></rdf:RDF></metadata><title>Fethi Sedjai logo</title><style>
		.bg {
			fill: #fff;
		}

		.mark {
			fill: #000;
		}

		@media (prefers-color-scheme: dark) {
			.bg {
				fill: #000;
			}

			.mark {
				fill: #fff;
			}
		}
	</style><rect class="bg" width="1254" height="1254" rx="260"></rect><g transform="translate(94.05 1159.95) scale(0.085 -0.085)">
		<path class="mark" d="M11070 10215 c0 -22 -96 -252 -137 -325 -117 -214 -319 -408 -541 -519 -73 -37 -205 -82 -312 -107 -69 -16 -185 -18 -1465 -23 -1279 -6 -1393 -7 -1433 -23 -108 -44 -189 -125 -251 -254 -33 -68 -235 -515 -258 -571 -4 -10 220 -13 1102 -13 l1106 0 -7 -22 c-15 -48 -103 -228 -153 -313 -97 -163 -190 -272 -316 -369 -177 -136 -302 -196 -535 -254 l-105 -26 -1885 -6 -1885 -5 -56 -23 c-163 -65 -259 -180 -295 -352 -34 -161 29 -338 153 -431 115 -87 196 -109 416 -109 125 0 157 -3 157 -14 0 -7 -21 -58 -46 -112 -26 -54 -123 -268 -216 -474 -93 -206 -174 -378 -181 -382 -7 -5 -39 -6 -72 -2 -232 23 -482 115 -674 247 -102 70 -249 213 -326 316 -120 159 -222 388 -261 586 -22 112 -30 365 -15 462 91 577 466 1020 1020 1203 224 74 212 73 1109 79 l803 6 56 125 c362 811 444 964 619 1164 257 294 674 507 1066 545 46 5 923 9 1951 10 1635 1 1867 -1 1867 -14z m-4920 -3024 c0 -5 -68 -161 -151 -347 -83 -187 -153 -347 -156 -356 -5 -15 27 -17 419 -20 421 -4 423 -4 521 -31 239 -64 455 -191 646 -379 250 -246 387 -541 421 -904 30 -307 -45 -641 -201 -903 -231 -388 -640 -664 -1052 -710 -102 -12 -1732 -16 -1761 -5 -26 10 -19 34 50 185 36 79 79 173 94 209 16 36 82 180 148 320 l118 255 575 5 c607 6 602 6 699 55 223 114 325 426 214 653 -36 74 -131 172 -202 210 -114 61 -128 62 -657 62 l-481 0 -43 -97 c-88 -199 -569 -1273 -646 -1443 -364 -803 -359 -793 -433 -910 -128 -203 -359 -409 -584 -524 -211 -107 -413 -156 -676 -163 l-172 -6 19 44 c24 57 195 438 228 509 26 56 243 538 269 598 l14 32 -949 0 -950 0 25 68 c126 339 351 591 671 751 167 84 321 128 525 150 56 6 313 11 602 11 l504 0 15 38 c8 20 51 116 95 212 222 486 293 642 327 715 21 44 49 105 62 135 76 170 309 659 353 740 164 308 488 590 840 730 128 52 338 102 475 113 87 8 185 7 185 -2z"></path>
	</g></svg>